<svg width="48" height="48" viewBox="0 0 48 48" fill="none" xmlns="http://www.w3.org/2000/svg">
<rect width="48" height="48" rx="8.88889" fill="white"/>
<path d="M19.5 30H16V16.6H23.5C24.7 16.6 25.7333 16.8 26.6 17.2C27.4667 17.6 28.1333 18.1667 28.6 18.9C29.0667 19.6333 29.3 20.5 29.3 21.5C29.3 22.5 29.0667 23.3667 28.6 24.1C28.1333 24.8333 27.4667 25.4 26.6 25.8C25.7333 26.2 24.7 26.4 23.5 26.4H19.5V30ZM19.5 23.4H23.1C23.8333 23.4 24.3667 23.2333 24.7 22.9C25.0333 22.5667 25.2 22.1 25.2 21.5C25.2 20.9 25.0333 20.4333 24.7 20.1C24.3667 19.7667 23.8333 19.6 23.1 19.6H19.5V23.4Z" fill="url(#paint0_linear_1545_39)"/>
<path d="M32 30L28 16.6H31.5L34 26.4H34.2L36.7 16.6H40.2L36.2 30H32Z" fill="url(#paint1_linear_1545_39)"/>
<defs>
<linearGradient id="paint0_linear_1545_39" x1="16" y1="30" x2="29.3" y2="16.6" gradientUnits="userSpaceOnUse">
<stop stop-color="#6A3DE8"/>
<stop offset="1" stop-color="#E47FE8"/>
</linearGradient>
<linearGradient id="paint1_linear_1545_39" x1="28" y1="30" x2="40.2" y2="16.6" gradientUnits="userSpaceOnUse">
<stop stop-color="#6A3DE8"/>
<stop offset="1" stop-color="#E47FE8"/>
</linearGradient>
</defs>
</svg>
